<svg width="500" height="500" xmlns="http://www.w3.org/2000/svg">

 <g>
  <title>Layer 1</title>
  <g id="freepik--background-simple--inject-61">
   <path id="svg_1" fill="#92E3A9" d="m208.87,466.69s77.87,14.07 142.35,-39.53s86.06,-142.36 105.44,-213.82s-10.53,-135.94 -70.86,-157.6s-89.59,29.83 -166.17,44.78s-99.25,7.31 -155.36,61.62s-49.27,159.52 14.63,227.61s129.97,76.94 129.97,76.94z"/>
   <path id="svg_2" fill="#fff" opacity="0.7" d="m208.87,466.69s77.87,14.07 142.35,-39.53s86.06,-142.36 105.44,-213.82s-10.53,-135.94 -70.86,-157.6s-89.59,29.83 -166.17,44.78s-99.25,7.31 -155.36,61.62s-49.27,159.52 14.63,227.61s129.97,76.94 129.97,76.94z"/>
  </g>
  <g id="freepik--Clouds--inject-61">
   <path id="svg_3" fill="none" stroke="#263238" stroke-linecap="round" stroke-linejoin="round" d="m228.84,84.58c-6.79,-3.7 -9.87,-0.62 -12.34,-3.7s6.79,-11.1 -11.72,-19.12c0,0 -1.23,-17.28 -26.52,-17.89s-18.51,17.27 -25.26,21.59s-8.63,-2.47 -15.42,1.85s-3.7,13 -9.25,14.19s-12.95,-5.56 -19.74,-1.24s-6.78,8 -9.87,8s-9.25,-2.47 -13,0s-8,5.55 -8,5.55l156.05,0s1.85,-5.53 -4.93,-9.23z"/>
   <path id="svg_4" fill="none" stroke="#263238" stroke-linecap="round" stroke-linejoin="round" d="m136.52,82.05a22.87,22.87 0 0 1 -2.76,1.3"/>
   <path id="svg_5" fill="none" stroke="#263238" stroke-linecap="round" stroke-linejoin="round" d="m169.9,53.23a10.53,10.53 0 0 0 -6,7.53c-1.13,5.65 -3.77,9.41 -6.78,9.79s-14.3,-0.76 -16.18,3.39a15.89,15.89 0 0 0 -1.06,3.78"/>
   <path id="svg_6" fill="none" stroke="#263238" stroke-linecap="round" stroke-linejoin="round" d="m101.34,180.15c-2.46,-1.34 -3.57,-0.22 -4.47,-1.34s2.46,-4 -4.24,-6.93c0,0 -0.45,-6.25 -9.6,-6.47s-6.71,6.25 -9.16,7.81s-3.13,-0.89 -5.59,0.67s-1.34,4.7 -3.35,5.14s-4.69,-2 -7.14,-0.44s-2.46,2.9 -3.58,2.9s-3.35,-0.89 -4.69,0s-2.9,2 -2.9,2l56.51,0s0.67,-2 -1.79,-3.34z"/>
   <path id="svg_7" fill="none" stroke="#263238" stroke-linecap="round" stroke-linejoin="round" d="m67.91,179.23a7.8,7.8 0 0 1 -1,0.47"/>
   <path id="svg_8" fill="none" stroke="#263238" stroke-linecap="round" stroke-linejoin="round" d="m80,168.8a3.81,3.81 0 0 0 -2.18,2.72c-0.41,2 -1.36,3.41 -2.45,3.55s-5.18,-0.28 -5.86,1.22a6.2,6.2 0 0 0 -0.39,1.37"/>
   <path id="svg_9" fill="none" stroke="#263238" stroke-linecap="round" stroke-linejoin="round" d="m428.91,128.94c-3.35,-1.82 -4.87,-0.3 -6.08,-1.82s3.34,-5.47 -5.77,-9.42c0,0 -0.61,-8.5 -13.07,-8.81s-9.11,8.51 -12.46,10.64s-4.25,-1.22 -7.59,0.91s-1.82,6.38 -4.56,7s-6.38,-2.74 -9.72,-0.61s-3.34,4 -4.86,4s-4.56,-1.22 -6.38,0s-3.95,2.73 -3.95,2.73l76.87,0s0.91,-2.79 -2.43,-4.62z"/>
   <path id="svg_10" fill="none" stroke="#263238" stroke-linecap="round" stroke-linejoin="round" d="m383.43,127.7a11.67,11.67 0 0 1 -1.35,0.64"/>
   <path id="svg_11" fill="none" stroke="#263238" stroke-linecap="round" stroke-linejoin="round" d="m399.88,113.5a5.2,5.2 0 0 0 -3,3.71c-0.56,2.78 -1.85,4.64 -3.34,4.82s-7,-0.37 -8,1.67a8,8 0 0 0 -0.52,1.86"/>
  </g>
  <g id="freepik--Character--inject-61">
   <path id="svg_12" fill="gray" d="m139.98526,455.83947s3.56,-72.78 1,-88.89s-11.48,-22.36 -14.6,-22.36s-20.76,9.08 -30.16,10.4c-16.2,2.27 -29.64,-8.32 -29.12,-16.64a49.08,49.08 0 0 1 3.56,-15.15a15.5,15.5 0 0 1 -5.12,0.59c-3.64,0 -9.75,-5.32 -8.83,-10.92c0.84,-5.16 8.83,-8.84 8.83,-8.84l-6.37,-3.14c-9.88,-4.1 -4.54,-15.1 -1.94,-15.1s3.63,-6.76 3.63,-6.76c-7.79,-2.6 -8.83,-7.8 -8.83,-14s11.95,-7.24 20.79,-17.68s5.11,-26 8.84,-35.88c9,-23.65 31.72,-37.43 31.72,-37.43s21.08,-13.61 38.56,-13.61s47.86,2.76 75.46,20.25s27.61,66.26 23.93,100.31s-19.32,50.62 -22.08,62.58s-12.89,51.54 -4.61,66.26c0,-0.04 -24.84,-7.36 -84.66,46.01z"/>
   <path id="svg_13" fill="none" stroke="#263238" stroke-miterlimit="10" d="m83.67526,273.02947a12.84,12.84 0 0 0 -1.49,-2.8"/>
   <path id="svg_14" fill="none" stroke="#263238" stroke-miterlimit="10" d="m63.98526,274.90947s6.76,2.08 6.76,5.72s7.8,6.24 12,1a7.59,7.59 0 0 0 1.72,-4.58"/>
   <path id="svg_15" fill="#4c4c4c" stroke="#263238" stroke-miterlimit="10" d="m62.71526,302.62947l2.83,1.4s-8,3.68 -8.83,8.84c-0.92,5.6 5.19,10.92 8.83,10.92a16.69,16.69 0 0 0 5,-0.56l0.1,0s6.42,-2 8.78,-7.1l2.37,-5.07s-9.8,-5.07 -12.84,-7.43c-1.33,-1.08 -3.72,-1.33 -6.24,-1z"/>
   <path id="svg_16" fill="#383838" stroke="#263238" stroke-miterlimit="10" d="m75.73526,297.51947c-1.36,-4.74 -6.09,-11.16 -10.82,-10.82a18.45,18.45 0 0 1 -7.68,-0.87c-2.6,0 -7.94,10.91 1.94,15.06l6.37,3.14a59.15,59.15 0 0 0 9.51,6c5.41,2.7 7.77,-0.68 7.77,-0.68c-1.35,-0.01 -5.72,-7.1 -7.09,-11.83z"/>
   <path id="svg_17" fill="none" stroke="#263238" stroke-miterlimit="10" d="m108.88526,234.00947s-4.52,-2 -8,-1.46s-6.31,10.64 -6.31,10.64"/>
   <path id="svg_18" fill="#263238" stroke="#263238" stroke-miterlimit="10" d="m90.53526,227.22947s6.23,-7.63 15.36,-7s14.7,6.92 14.22,7.88s-5.87,-4.27 -9.55,-4.81s-11.77,3.41 -15.79,5.21s-4.24,-1.28 -4.24,-1.28z"/>
   <path id="svg_19" fill="#263238" stroke="#263238" stroke-miterlimit="10" d="m110.99526,247.63947s-21.35,-3.46 -24.89,-7.39s-1.24,-0.86 -1.24,-0.86a16.12,16.12 0 0 0 6.48,7.09c4.72,2.74 18.43,4.74 21,3.41s-1.35,-2.25 -1.35,-2.25z"/>
   <path id="svg_20" fill="#263238" stroke="#263238" stroke-miterlimit="10" d="m92.45526,250.19947a35.08,35.08 0 0 0 17.64,2c-11.23,-4.81 -17.64,-2 -17.64,-2z"/>
   <line id="svg_21" fill="none" stroke="#263238" stroke-miterlimit="10" y2="262.22947" x2="73.60526" y1="257.00947" x1="69.99526"/>
   <line id="svg_22" fill="none" stroke="#263238" stroke-miterlimit="10" y2="264.22947" x2="78.01526" y1="257.40947" x1="73.60526"/>
   <path id="svg_23" fill="none" stroke="#263238" stroke-miterlimit="10" d="m100.10526,257.00947s7.62,-2.8 18.85,-2"/>
   <circle transform="rotate(-45 -194.495 207.82)" id="svg_24" fill="none" stroke="#92E3A9" stroke-miterlimit="10" stroke-width="5px" r="40.74" cy="544.07947" cx="-19.78474"/>
   <path id="svg_25" fill="#263238" stroke="#263238" stroke-miterlimit="10" d="m445.77631,274.41684c-0.92,-17.49 -3,-36 -9.2,-52.46c-7.75,-32.86 -30.36,-50.46 -30.36,-50.46s15.29,7.49 18.41,6s2.09,-20.59 -23.07,-42.15s-45,-31.29 -45,-31.29s20.72,-11 8.72,-15.76a160.89,160.89 0 0 0 -33.38,-9.29c-1.91,-0.31 -22.34,-0.18 -22.4,-0.29c-6.27,-12.13 -24.23,-27.15 -34.92,-30.71c-13.8,-4.6 -0.92,11 -0.92,11s-23.93,-18.4 -51.54,-21.17s-28.29,30.17 -28.29,30.17c-23,-13.62 -65.36,-3.87 -70.15,14.07s3.44,34.45 3.44,34.45s-33,-14.62 -35.59,-0.62s25,41.15 25,41.15s-25.17,-9.68 -22.65,0.68s34,16.51 32.23,16.33s-27.43,6.74 -25.14,13.51s30.47,4.27 28.65,4.68s-21.44,18 -15,24.63s23.83,5.38 23.83,5.38s-19.43,9.92 -13.32,20s13,0.72 13,0.72s-9.2,20.46 -0.86,32s22.82,9.44 22.82,9.44s-30.56,25.49 -19.37,38.51c8.2,9.56 17,7 21.06,5l-1.25,1.7s-14.72,45.09 -6.44,52.45s25.77,0 25.77,0s-8.33,18.41 3.67,22.09s30.37,-14.73 30.37,-14.73s-7.36,26.69 13.81,35.9s74.82,-21.28 74.82,-21.28s-8.79,16.35 13.27,21.55c14.74,3.47 28.84,-15.66 36.58,-28.74c4.65,6 10.17,11.4 15.1,11.38c11.29,0 18.2,-21.33 18.2,-21.33s15.4,12.25 22.59,-0.1a87.67,87.67 0 0 0 5.79,-13.76c3.3,0.67 7.55,-0.33 12.45,-4.78c10.12,-9.21 9.2,-46.94 9.2,-46.94s12.49,-0.97 10.07,-46.93z"/>
  </g>
  <g id="freepik--Text--inject-61"/>
  <g id="freepik--Graphics--inject-61">
   <path id="svg_42" fill="none" stroke="gray" stroke-miterlimit="10" d="m234.07369,251.98421s2,-16.09 10.72,-18.77s4.7,4.69 4.7,4.69s7.37,-4.69 14.74,-4.69s2.68,6.7 2.68,6.7s18.77,0.67 16.09,5.37s-13.41,4 -13.41,4s6,6 1.34,7.37s-16.75,1.34 -16.75,1.34s-0.71,7.39 -10.71,2.69"/>
   <path id="svg_43" fill="none" stroke="gray" stroke-miterlimit="10" d="m240.08369,255.36421s5.69,-13 42.28,-11.38"/>
   <path id="svg_44" fill="none" stroke="gray" stroke-miterlimit="10" d="m367.11,273.47s2.44,1.63 10.17,2"/>
   <path id="svg_45" fill="none" stroke="gray" stroke-miterlimit="10" d="m258.37369,229.75421s7.32,-3.66 13.42,1.22"/>
   <circle id="svg_46" transform="rotate(-45 -46.38 175.27)" fill="none" stroke="gray" stroke-miterlimit="10" r="16.46" cy="318.89" cx="141.99"/>
   <line id="svg_47" fill="none" stroke="gray" stroke-miterlimit="10" y2="160.08" x2="188.37" y1="127.16" x1="188.37"/>
   <polyline id="svg_48" fill="none" stroke="gray" stroke-miterlimit="10" points="176.19 131.78 188.37 143.62 200.69 133.16"/>
   <path id="svg_49" fill="none" stroke="#92E3A9" stroke-linecap="round" stroke-linejoin="round" d="m246,125.45737a3.33,3.33 0 0 0 -0.78,0.1a3.36,3.36 0 1 0 -5.65,-2.86a3.36,3.36 0 0 0 -6.38,1.47a3.33,3.33 0 0 0 1.21,2.57a3.36,3.36 0 1 0 3.87,5.39a3.35,3.35 0 0 0 6.68,-0.12a3.31,3.31 0 0 0 1.05,0.19a3.37,3.37 0 0 0 0,-6.74z"/>
   <circle id="svg_50" fill="none" stroke="#92E3A9" stroke-linecap="round" stroke-linejoin="round" r="2.33" cy="128.10737" cx="240.27"/>
   <path id="svg_51" fill="none" stroke="#92E3A9" stroke-linecap="round" stroke-linejoin="round" d="m278.74,124.7a3.33,3.33 0 0 0 -0.78,0.1a3.34,3.34 0 0 0 1,-2.42a3.36,3.36 0 0 0 -6.69,-0.44a3.36,3.36 0 1 0 -5.18,4a3.36,3.36 0 1 0 3.87,5.39a3.35,3.35 0 0 0 6.68,-0.12a3.42,3.42 0 0 0 1.06,0.19a3.37,3.37 0 0 0 0,-6.74l0.04,0.04z"/>
   <path id="svg_52" fill="none" stroke="#92E3A9" stroke-linecap="round" stroke-linejoin="round" d="m275.32,127.35a2.33,2.33 0 1 0 -2.32,2.33a2.32,2.32 0 0 0 2.32,-2.33z"/>
   <path id="svg_53" fill="none" stroke="#92E3A9" stroke-linecap="round" stroke-linejoin="round" d="m206.21,211.77a4,4 0 0 0 -0.78,0.09a3.34,3.34 0 0 0 1,-2.42a3.36,3.36 0 0 0 -6.69,-0.43a3.36,3.36 0 1 0 -5.17,4a3.36,3.36 0 1 0 3.86,5.4a3.35,3.35 0 0 0 6.68,-0.12a3.42,3.42 0 0 0 1.06,0.18a3.37,3.37 0 0 0 0,-6.73l0.04,0.03z"/>
   <circle id="svg_54" fill="none" stroke="#92E3A9" stroke-linecap="round" stroke-linejoin="round" r="2.33" cy="214.41" cx="200.47"/>
   <path id="svg_55" fill="none" stroke="gray" stroke-linecap="round" stroke-linejoin="round" d="m274.0521,293.78684a65.57,65.57 0 0 1 10.93,-1.54c4.34,0 9.44,6.58 9.44,6.58s-8.23,0.18 -12.11,0.32s-8.26,-5.36 -8.26,-5.36z"/>
   <path id="svg_56" fill="none" stroke="gray" stroke-linecap="round" stroke-linejoin="round" d="m274.0521,293.78684s11,0.4 18.63,4.19"/>
   <path id="svg_57" fill="none" stroke="gray" stroke-linecap="round" stroke-linejoin="round" d="m278.0121,317.09684a65.25,65.25 0 0 1 6.44,-9c3,-3.18 11.28,-2.29 11.28,-2.29s-5.55,6.08 -8.13,9s-9.59,2.29 -9.59,2.29z"/>
   <path id="svg_58" fill="none" stroke="gray" stroke-linecap="round" stroke-linejoin="round" d="m278.0121,317.09684s7.89,-7.67 15.9,-10.58"/>
   <path id="svg_59" fill="none" stroke="gray" stroke-linecap="round" stroke-linejoin="round" d="m374.65,134.93a65.61,65.61 0 0 1 -4,10.3c-2.08,3.81 -10.35,5.05 -10.35,5.05s3.85,-7.28 5.61,-10.74s8.74,-4.61 8.74,-4.61z"/>
   <path id="svg_60" fill="none" stroke="gray" stroke-linecap="round" stroke-linejoin="round" d="m374.65,134.93s-5.7,9.41 -12.72,14.24"/>
   <path id="svg_61" fill="none" stroke="#92E3A9" stroke-linecap="round" stroke-linejoin="round" d="m321.26316,235.02579c-5.71,-3.4 -8.75,3.87 -9.5,6c-2.11,-0.82 -9.6,-3.24 -10.74,3.3c-1.23,7.12 17.67,12.09 17.77,12s8.66,-17.6 2.47,-21.3z"/>
   <path id="svg_62" fill="none" stroke="#92E3A9" stroke-linecap="round" stroke-linejoin="round" d="m351.89158,272.04789c-3.81,-2.27 -5.84,2.58 -6.34,4c-1.41,-0.55 -6.42,-2.17 -7.18,2.21c-0.82,4.75 11.8,8.07 11.87,8s5.8,-11.74 1.65,-14.21z"/>
   <path id="svg_63" fill="none" stroke="#92E3A9" stroke-linecap="round" stroke-linejoin="round" d="m164,176.17c-3.55,-2.12 -5.45,2.41 -5.91,3.74c-1.32,-0.52 -6,-2 -6.69,2.05c-0.77,4.43 11,7.53 11.06,7.47s5.37,-10.96 1.54,-13.26z"/>
   <path id="svg_64" fill="none" stroke="#92E3A9" stroke-linecap="round" stroke-linejoin="round" d="m382.46,176.68s11.78,-3.56 9.91,-10.52c-1.59,-5.91 -7.13,0 -7.13,0s3.41,-5.55 -1.69,-8.1s-6.47,4.53 -6.47,4.53s-1,-6.62 -5.6,-3.56s5.1,19.36 5.1,19.36l5.88,-1.71z"/>
   <path id="svg_65" fill="none" stroke="#92E3A9" stroke-linecap="round" stroke-linejoin="round" d="m246.87369,195.50421a62.45,62.45 0 0 0 9.18,-23.43l5,-15.51"/>
   <path id="svg_66" fill="none" stroke="#92E3A9" stroke-linecap="round" stroke-linejoin="round" d="m373.52,189.6s1,-4.08 -2,-9.17a36.44,36.44 0 0 0 -6.62,-8.16s-1.53,5.61 -0.51,9.17s9.13,8.16 9.13,8.16z"/>
   <path id="svg_67" fill="none" stroke="#92E3A9" stroke-linecap="round" stroke-linejoin="round" d="m372,193.67a10.57,10.57 0 0 1 7.13,-2.54l9.68,0s-12.23,9.68 -16.81,2.54z"/>
   <polyline id="svg_68" fill="none" stroke="#92E3A9" stroke-linecap="round" stroke-linejoin="round" points="375.01 165.51 376.55 177.55 385.09 171.2"/>
   <path id="svg_69" fill="none" stroke="#92E3A9" stroke-linecap="round" stroke-linejoin="round" d="m190.26,247.25s3,-9.26 -2.33,-11.2c-4.55,-1.64 -3.23,4.63 -3.23,4.63s-2.06,-4.73 -6,-2.58s0,6.25 0,6.25s-4.76,-2.34 -4.85,2s14.86,5.47 14.86,5.47l1.55,-4.57z"/>
   <path id="svg_70" fill="none" stroke="#92E3A9" stroke-linecap="round" stroke-linejoin="round" d="m199.75,268.41a49.48,49.48 0 0 0 -11.05,-16.57l-7.79,-10.28"/>
   <path id="svg_71" fill="none" stroke="#92E3A9" stroke-linecap="round" stroke-linejoin="round" d="m194.59,258.9a10.26,10.26 0 0 0 -6.87,-2.83a28.58,28.58 0 0 0 -8.29,0.6s2.94,3.53 5.71,4.49s9.45,-2.26 9.45,-2.26z"/>
   <path id="svg_72" fill="none" stroke="#92E3A9" stroke-linecap="round" stroke-linejoin="round" d="m196.54,261.74a8.33,8.33 0 0 1 1.58,-5.78l4.39,-6.28s0.73,12.32 -5.97,12.06z"/>
   <polyline id="svg_73" fill="none" stroke="#92E3A9" stroke-linecap="round" stroke-linejoin="round" points="179.64 247.02 188.15 251.48 187.9 243.06"/>
   <path id="svg_74" fill="#92E3A9" d="m207.63,305.44c-0.36,-0.85 -0.75,-1.59 -1,-2c-1.79,-3.29 -4.42,-6.18 -8.55,-5.59c-7,1 6,12 8.34,12.33c2.87,0.41 2.14,-2.52 1.21,-4.74z"/>
   <path id="svg_75" fill="#92E3A9" d="m204,290.18a10.08,10.08 0 0 0 -0.47,-1c-0.87,-1.61 -2.15,-3 -4.17,-2.73c-3.42,0.49 2.93,5.86 4.07,6c1.43,0.25 1.07,-1.19 0.57,-2.27z"/>
  </g>
 </g>
</svg>