<svg xmlns="http://www.w3.org/2000/svg" viewBox="0 0 500 500"><g id="freepik--Clouds--inject-61"><path d="M228.84,84.58c-6.79-3.7-9.87-.62-12.34-3.7s6.79-11.1-11.72-19.12c0,0-1.23-17.28-26.52-17.89S159.75,61.14,153,65.46s-8.63-2.47-15.42,1.85-3.7,13-9.25,14.19-12.95-5.56-19.74-1.24-6.78,8-9.87,8-9.25-2.47-13,0-8,5.55-8,5.55H233.77S235.62,88.28,228.84,84.58Z" style="fill:none;stroke:#263238;stroke-linecap:round;stroke-linejoin:round"></path><path d="M136.52,82.05a22.87,22.87,0,0,1-2.76,1.3" style="fill:none;stroke:#263238;stroke-linecap:round;stroke-linejoin:round"></path><path d="M169.9,53.23a10.53,10.53,0,0,0-6,7.53c-1.13,5.65-3.77,9.41-6.78,9.79s-14.3-.76-16.18,3.39a15.89,15.89,0,0,0-1.06,3.78" style="fill:none;stroke:#263238;stroke-linecap:round;stroke-linejoin:round"></path><path d="M101.34,180.15c-2.46-1.34-3.57-.22-4.47-1.34s2.46-4-4.24-6.93c0,0-.45-6.25-9.6-6.47s-6.71,6.25-9.16,7.81-3.13-.89-5.59.67-1.34,4.7-3.35,5.14-4.69-2-7.14-.44-2.46,2.9-3.58,2.9-3.35-.89-4.69,0-2.9,2-2.9,2h56.51S103.8,181.49,101.34,180.15Z" style="fill:none;stroke:#263238;stroke-linecap:round;stroke-linejoin:round"></path><path d="M67.91,179.23a7.8,7.8,0,0,1-1,.47" style="fill:none;stroke:#263238;stroke-linecap:round;stroke-linejoin:round"></path><path d="M80,168.8a3.81,3.81,0,0,0-2.18,2.72c-.41,2-1.36,3.41-2.45,3.55s-5.18-.28-5.86,1.22a6.2,6.2,0,0,0-.39,1.37" style="fill:none;stroke:#263238;stroke-linecap:round;stroke-linejoin:round"></path><path d="M428.91,128.94c-3.35-1.82-4.87-.3-6.08-1.82s3.34-5.47-5.77-9.42c0,0-.61-8.5-13.07-8.81s-9.11,8.51-12.46,10.64-4.25-1.22-7.59.91-1.82,6.38-4.56,7-6.38-2.74-9.72-.61-3.34,4-4.86,4-4.56-1.22-6.38,0-3.95,2.73-3.95,2.73h76.87S432.25,130.77,428.91,128.94Z" style="fill:none;stroke:#263238;stroke-linecap:round;stroke-linejoin:round"></path><path d="M383.43,127.7a11.67,11.67,0,0,1-1.35.64" style="fill:none;stroke:#263238;stroke-linecap:round;stroke-linejoin:round"></path><path d="M399.88,113.5a5.2,5.2,0,0,0-3,3.71c-.56,2.78-1.85,4.64-3.34,4.82s-7-.37-8,1.67a8,8,0,0,0-.52,1.86" style="fill:none;stroke:#263238;stroke-linecap:round;stroke-linejoin:round"></path></g><g id="freepik--Character--inject-61"><path d="M147.88,470.05s3.56-72.78,1-88.89S137.4,358.8,134.28,358.8s-20.76,9.08-30.16,10.4c-16.2,2.27-29.64-8.32-29.12-16.64a49.08,49.08,0,0,1,3.56-15.15,15.5,15.5,0,0,1-5.12.59c-3.64,0-9.75-5.32-8.83-10.92.84-5.16,8.83-8.84,8.83-8.84l-6.37-3.14C57.19,311,62.53,300,65.13,300s3.63-6.76,3.63-6.76c-7.79-2.6-8.83-7.8-8.83-14S71.88,272,80.72,261.56s5.11-26,8.84-35.88c9-23.65,31.72-37.43,31.72-37.43s21.08-13.61,38.56-13.61,47.86,2.76,75.46,20.25,27.61,66.26,23.93,100.31-19.32,50.62-22.08,62.58-12.89,51.54-4.61,66.26C232.54,424,207.7,416.68,147.88,470.05Z" style="fill:gray"></path><path d="M91.57,287.24a12.84,12.84,0,0,0-1.49-2.8" style="fill:none;stroke:#263238;stroke-miterlimit:10"></path><path d="M71.88,289.12s6.76,2.08,6.76,5.72,7.8,6.24,12,1a7.59,7.59,0,0,0,1.72-4.58" style="fill:none;stroke:#263238;stroke-miterlimit:10"></path><path d="M70.61,316.84l2.83,1.4s-8,3.68-8.83,8.84c-.92,5.6,5.19,10.92,8.83,10.92a16.69,16.69,0,0,0,5-.56l.1,0s6.42-2,8.78-7.1l2.37-5.07s-9.8-5.07-12.84-7.43C75.52,316.76,73.13,316.51,70.61,316.84Z" style="fill:#4c4c4c;stroke:#263238;stroke-miterlimit:10"></path><path d="M83.63,311.73c-1.36-4.74-6.09-11.16-10.82-10.82a18.45,18.45,0,0,1-7.68-.87c-2.6,0-7.94,10.91,1.94,15.06l6.37,3.14a59.15,59.15,0,0,0,9.51,6c5.41,2.7,7.77-.68,7.77-.68C89.37,323.55,85,316.46,83.63,311.73Z" style="fill:#383838;stroke:#263238;stroke-miterlimit:10"></path><path d="M116.78,248.22s-4.52-2-8-1.46-6.31,10.64-6.31,10.64" style="fill:none;stroke:#263238;stroke-miterlimit:10"></path><path d="M98.43,241.44s6.23-7.63,15.36-7,14.7,6.92,14.22,7.88-5.87-4.27-9.55-4.81-11.77,3.41-15.79,5.21S98.43,241.44,98.43,241.44Z" style="fill:#263238;stroke:#263238;stroke-miterlimit:10"></path><path d="M118.89,261.85S97.54,258.39,94,254.46s-1.24-.86-1.24-.86a16.12,16.12,0,0,0,6.48,7.09c4.72,2.74,18.43,4.74,21,3.41S118.89,261.85,118.89,261.85Z" style="fill:#263238;stroke:#263238;stroke-miterlimit:10"></path><path d="M100.35,264.41a35.08,35.08,0,0,0,17.64,2C106.76,261.6,100.35,264.41,100.35,264.41Z" style="fill:#263238;stroke:#263238;stroke-miterlimit:10"></path><line x1="77.89" y1="271.22" x2="81.5" y2="276.44" style="fill:none;stroke:#263238;stroke-miterlimit:10"></line><line x1="81.5" y1="271.62" x2="85.91" y2="278.44" style="fill:none;stroke:#263238;stroke-miterlimit:10"></line><path d="M108,271.22s7.62-2.8,18.85-2" style="fill:none;stroke:#263238;stroke-miterlimit:10"></path><circle cx="174.71" cy="336.26" r="40.74" transform="translate(-186.6 222.03) rotate(-45)" style="fill:none;stroke:#92E3A9;stroke-miterlimit:10;stroke-width:5px"></circle><path d="M455.25,289.68c-.92-17.49-3-36-9.2-52.46-7.75-32.86-30.36-50.46-30.36-50.46s15.29,7.49,18.41,6,2.09-20.59-23.07-42.15-45-31.29-45-31.29,20.72-11,8.72-15.76a160.89,160.89,0,0,0-33.38-9.29c-1.91-.31-22.34-.18-22.4-.29-6.27-12.13-24.23-27.15-34.92-30.71-13.8-4.6-.92,11-.92,11s-23.93-18.4-51.54-21.17S203.3,83.27,203.3,83.27c-23-13.62-65.36-3.87-70.15,14.07s3.44,34.45,3.44,34.45-33-14.62-35.59-.62,25,41.15,25,41.15-25.17-9.68-22.65.68,34,16.51,32.23,16.33-27.43,6.74-25.14,13.51,30.47,4.27,28.65,4.68-21.44,18-15,24.63,23.83,5.38,23.83,5.38-19.43,9.92-13.32,20,13,.72,13,.72-9.2,20.46-.86,32,22.82,9.44,22.82,9.44S139,325.18,150.19,338.2c8.2,9.56,17,7,21.06,5L170,344.9s-14.72,45.09-6.44,52.45,25.77,0,25.77,0S181,415.76,193,419.44s30.37-14.73,30.37-14.73-7.36,26.69,13.81,35.9S312,419.33,312,419.33s-8.79,16.35,13.27,21.55c14.74,3.47,28.84-15.66,36.58-28.74,4.65,6,10.17,11.4,15.1,11.38,11.29,0,18.2-21.33,18.2-21.33s15.4,12.25,22.59-.1a87.67,87.67,0,0,0,5.79-13.76c3.3.67,7.55-.33,12.45-4.78,10.12-9.21,9.2-46.94,9.2-46.94S457.67,335.64,455.25,289.68Z" style="fill:#263238;stroke:#263238;stroke-miterlimit:10"></path></g><g id="freepik--Graphics--inject-61"><path d="M354.6,258.3s2-16.09,10.72-18.77,4.7,4.69,4.7,4.69,7.37-4.69,14.74-4.69,2.68,6.7,2.68,6.7,18.77.67,16.09,5.37-13.41,4-13.41,4,6,6,1.34,7.37-16.75,1.34-16.75,1.34S374,271.7,364,267" style="fill:none;stroke:gray;stroke-miterlimit:10"></path><path d="M360.61,261.68s5.69-13,42.28-11.38" style="fill:none;stroke:gray;stroke-miterlimit:10"></path><path d="M367.11,273.47s2.44,1.63,10.17,2" style="fill:none;stroke:gray;stroke-miterlimit:10"></path><path d="M378.9,236.07s7.32-3.66,13.42,1.22" style="fill:none;stroke:gray;stroke-miterlimit:10"></path><circle cx="188.37" cy="143.62" r="16.46" transform="translate(-46.38 175.27) rotate(-45)" style="fill:none;stroke:gray;stroke-miterlimit:10"></circle><line x1="188.37" y1="127.16" x2="188.37" y2="160.08" style="fill:none;stroke:gray;stroke-miterlimit:10"></line><polyline points="176.19 131.78 188.37 143.62 200.69 133.16" style="fill:none;stroke:gray;stroke-miterlimit:10"></polyline><path d="M426,286.51a3.33,3.33,0,0,0-.78.1,3.36,3.36,0,1,0-5.65-2.86,3.36,3.36,0,0,0-6.38,1.47,3.33,3.33,0,0,0,1.21,2.57,3.36,3.36,0,1,0,3.87,5.39,3.35,3.35,0,0,0,6.68-.12,3.31,3.31,0,0,0,1.05.19,3.37,3.37,0,0,0,0-6.74Z" style="fill:none;stroke:#92E3A9;stroke-linecap:round;stroke-linejoin:round"></path><circle cx="420.27" cy="289.16" r="2.33" style="fill:none;stroke:#92E3A9;stroke-linecap:round;stroke-linejoin:round"></circle><path d="M278.74,124.7a3.33,3.33,0,0,0-.78.1,3.34,3.34,0,0,0,1-2.42,3.36,3.36,0,0,0-6.69-.44,3.36,3.36,0,1,0-5.18,4,3.36,3.36,0,1,0,3.87,5.39,3.35,3.35,0,0,0,6.68-.12,3.42,3.42,0,0,0,1.06.19,3.37,3.37,0,0,0,0-6.74Z" style="fill:none;stroke:#92E3A9;stroke-linecap:round;stroke-linejoin:round"></path><path d="M275.32,127.35a2.33,2.33,0,1,0-2.32,2.33A2.32,2.32,0,0,0,275.32,127.35Z" style="fill:none;stroke:#92E3A9;stroke-linecap:round;stroke-linejoin:round"></path><path d="M206.21,211.77a4,4,0,0,0-.78.09,3.34,3.34,0,0,0,1-2.42,3.36,3.36,0,0,0-6.69-.43,3.36,3.36,0,1,0-5.17,4,3.36,3.36,0,1,0,3.86,5.4,3.35,3.35,0,0,0,6.68-.12,3.42,3.42,0,0,0,1.06.18,3.37,3.37,0,0,0,0-6.73Z" style="fill:none;stroke:#92E3A9;stroke-linecap:round;stroke-linejoin:round"></path><circle cx="200.47" cy="214.41" r="2.33" style="fill:none;stroke:#92E3A9;stroke-linecap:round;stroke-linejoin:round"></circle><path d="M187.21,329.05a65.57,65.57,0,0,1,10.93-1.54c4.34,0,9.44,6.58,9.44,6.58s-8.23.18-12.11.32S187.21,329.05,187.21,329.05Z" style="fill:none;stroke:gray;stroke-linecap:round;stroke-linejoin:round"></path><path d="M187.21,329.05s11,.4,18.63,4.19" style="fill:none;stroke:gray;stroke-linecap:round;stroke-linejoin:round"></path><path d="M191.17,352.36a65.25,65.25,0,0,1,6.44-9c3-3.18,11.28-2.29,11.28-2.29s-5.55,6.08-8.13,9S191.17,352.36,191.17,352.36Z" style="fill:none;stroke:gray;stroke-linecap:round;stroke-linejoin:round"></path><path d="M191.17,352.36s7.89-7.67,15.9-10.58" style="fill:none;stroke:gray;stroke-linecap:round;stroke-linejoin:round"></path><path d="M374.65,134.93a65.61,65.61,0,0,1-4,10.3c-2.08,3.81-10.35,5.05-10.35,5.05s3.85-7.28,5.61-10.74S374.65,134.93,374.65,134.93Z" style="fill:none;stroke:gray;stroke-linecap:round;stroke-linejoin:round"></path><path d="M374.65,134.93s-5.7,9.41-12.72,14.24" style="fill:none;stroke:gray;stroke-linecap:round;stroke-linejoin:round"></path><path d="M396,298.71c-5.71-3.4-8.75,3.87-9.5,6-2.11-.82-9.6-3.24-10.74,3.3-1.23,7.12,17.67,12.09,17.77,12S402.19,302.41,396,298.71Z" style="fill:none;stroke:#92E3A9;stroke-linecap:round;stroke-linejoin:round"></path><path d="M379.26,328.89c-3.81-2.27-5.84,2.58-6.34,4-1.41-.55-6.42-2.17-7.18,2.21-.82,4.75,11.8,8.07,11.87,8S383.41,331.36,379.26,328.89Z" style="fill:none;stroke:#92E3A9;stroke-linecap:round;stroke-linejoin:round"></path><path d="M164,176.17c-3.55-2.12-5.45,2.41-5.91,3.74-1.32-.52-6-2-6.69,2.05-.77,4.43,11,7.53,11.06,7.47S167.83,178.47,164,176.17Z" style="fill:none;stroke:#92E3A9;stroke-linecap:round;stroke-linejoin:round"></path><path d="M382.46,176.68s11.78-3.56,9.91-10.52c-1.59-5.91-7.13,0-7.13,0s3.41-5.55-1.69-8.1-6.47,4.53-6.47,4.53-1-6.62-5.6-3.56,5.1,19.36,5.1,19.36Z" style="fill:none;stroke:#92E3A9;stroke-linecap:round;stroke-linejoin:round"></path><path d="M367.4,201.82a62.45,62.45,0,0,0,9.18-23.43l5-15.51" style="fill:none;stroke:#92E3A9;stroke-linecap:round;stroke-linejoin:round"></path><path d="M373.52,189.6s1-4.08-2-9.17a36.44,36.44,0,0,0-6.62-8.16s-1.53,5.61-.51,9.17S373.52,189.6,373.52,189.6Z" style="fill:none;stroke:#92E3A9;stroke-linecap:round;stroke-linejoin:round"></path><path d="M372,193.67a10.57,10.57,0,0,1,7.13-2.54h9.68S376.58,200.81,372,193.67Z" style="fill:none;stroke:#92E3A9;stroke-linecap:round;stroke-linejoin:round"></path><polyline points="375.01 165.51 376.55 177.55 385.09 171.2" style="fill:none;stroke:#92E3A9;stroke-linecap:round;stroke-linejoin:round"></polyline><path d="M190.26,247.25s3-9.26-2.33-11.2c-4.55-1.64-3.23,4.63-3.23,4.63s-2.06-4.73-6-2.58,0,6.25,0,6.25-4.76-2.34-4.85,2,14.86,5.47,14.86,5.47Z" style="fill:none;stroke:#92E3A9;stroke-linecap:round;stroke-linejoin:round"></path><path d="M199.75,268.41a49.48,49.48,0,0,0-11.05-16.57l-7.79-10.28" style="fill:none;stroke:#92E3A9;stroke-linecap:round;stroke-linejoin:round"></path><path d="M194.59,258.9a10.26,10.26,0,0,0-6.87-2.83,28.58,28.58,0,0,0-8.29.6s2.94,3.53,5.71,4.49S194.59,258.9,194.59,258.9Z" style="fill:none;stroke:#92E3A9;stroke-linecap:round;stroke-linejoin:round"></path><path d="M196.54,261.74a8.33,8.33,0,0,1,1.58-5.78l4.39-6.28S203.24,262,196.54,261.74Z" style="fill:none;stroke:#92E3A9;stroke-linecap:round;stroke-linejoin:round"></path><polyline points="179.64 247.02 188.15 251.48 187.9 243.06" style="fill:none;stroke:#92E3A9;stroke-linecap:round;stroke-linejoin:round"></polyline><path d="M207.63,305.44c-.36-.85-.75-1.59-1-2-1.79-3.29-4.42-6.18-8.55-5.59-7,1,6,12,8.34,12.33C209.29,310.59,208.56,307.66,207.63,305.44Z" style="fill:#92E3A9"></path><path d="M204,290.18a10.08,10.08,0,0,0-.47-1c-.87-1.61-2.15-3-4.17-2.73-3.42.49,2.93,5.86,4.07,6C204.86,292.7,204.5,291.26,204,290.18Z" style="fill:#92E3A9"></path></g></svg>