<svg xmlns="http://www.w3.org/2000/svg" viewBox="0 0 500 500"><g id="freepik--Floor--inject-62"><path id="freepik--floor--inject-62" d="M86.54,452.77c-90.46-52.22-90.46-136.89,0-189.11s237.11-52.23,327.56,0,90.45,136.89,0,189.11S177,505,86.54,452.77Z" style="fill:#f5f5f5"></path></g><g id="freepik--Shadows--inject-62"><ellipse id="freepik--Shadow--inject-62" cx="254.81" cy="396.03" rx="55.07" ry="31.8" style="fill:#e0e0e0"></ellipse><ellipse id="freepik--shadow--inject-62" cx="367.04" cy="399.66" rx="66.22" ry="38.23" style="fill:#e0e0e0"></ellipse><ellipse id="freepik--shadow--inject-62" cx="137.42" cy="402.69" rx="68.7" ry="39.67" style="fill:#e0e0e0"></ellipse></g><g id="freepik--character-3--inject-62"><g id="freepik--Character--inject-62"><g id="freepik--Bottom--inject-62"><path d="M407.32,386.59A59.39,59.39,0,0,0,401.6,380a72.67,72.67,0,0,0-7.27-6.46c-8.24-6.39-20-12.58-34.25-11.88a93.87,93.87,0,0,0-9.73.95,61.55,61.55,0,0,0-16.12,4.48c-7.79,3.49-10.4,7.34-10.4,7.34l3.1-64,5.5-113.8,6.79,5.49,59.67,48.22.64.52c-2.15,20.61-5.2,42.8-5.56,45.37a.28.28,0,0,1,0,.09c0,.11,0,.16,0,.16a73.47,73.47,0,0,1,6.07,9.95c1.48,26.65,4.09,54.59,6.14,71.42C406.57,381.25,407,384.2,407.32,386.59Z" style="fill:#87E59F"></path><path d="M407.32,386.59A59.39,59.39,0,0,0,401.6,380a72.67,72.67,0,0,0-7.27-6.46c-8.24-6.39-20-12.58-34.25-11.88a93.87,93.87,0,0,0-9.73.95,61.55,61.55,0,0,0-16.12,4.48c-7.79,3.49-10.4,7.34-10.4,7.34l3.1-64,5.5-113.8,6.79,5.49,59.67,48.22.64.52c-2.15,20.61-5.2,42.8-5.56,45.37a.28.28,0,0,1,0,.09c0,.11,0,.16,0,.16a73.47,73.47,0,0,1,6.07,9.95c1.48,26.65,4.09,54.59,6.14,71.42C406.57,381.25,407,384.2,407.32,386.59Z" style="opacity:0.45"></path><path d="M393.25,196.42c2.47-2.48,7.1-2.19,10.41,1.41C401.56,200.89,395.36,202.51,393.25,196.42Z" style="fill:#87E59F"></path><path d="M393.25,196.42c2.47-2.48,7.1-2.19,10.41,1.41C401.56,200.89,395.36,202.51,393.25,196.42Z" style="opacity:0.30000000000000004"></path><path d="M392.92,196.54c-1.12-3.31,1.22-7.33,5.92-8.67C400.63,191.12,399.31,197.38,392.92,196.54Z" style="fill:#87E59F"></path><path d="M392.92,196.54c-1.12-3.31,1.22-7.33,5.92-8.67C400.63,191.12,399.31,197.38,392.92,196.54Z" style="opacity:0.2"></path><path d="M409.76,371.5a10.24,10.24,0,0,1-3.61,6.34A10,10,0,0,1,401.6,380c-2.55.46-4.88-.3-5.63-2.42,0,0-.61-1.49-1.64-4-4.8-11.83-18.79-46.44-23.42-59.68a242.23,242.23,0,0,1-10.83-45.78l-5.94,33A60.48,60.48,0,0,1,355.62,322c-1.22,10-3.81,27.92-5.27,40.58-.31,2.69-.57,5.15-.75,7.25-.16,1.83-.4,3.87-.41,5.7,0,.54-1.36,2.3-6.4,3.14s-7.28-2.37-7.36-3.11c0-.39-.5-3.61-1.2-8.5-2-14.31-6-42.93-7.3-56.68-.2-2.12-.33-3.88-.38-5.18-.81-21.21,3.93-88.26,5.88-108.62a60.4,60.4,0,0,1,2.76-17.54l50.59-2.74s-1.21,2.06,1.52,6.71c2.62,4.45,5.72,8.34,6.21,11.75,1.63,11.29,8.39,22,5.57,53.45-.06.66-.12,1.35-.19,2.08-1.41,15-4.59,43-4.92,45.89a.31.31,0,0,0,0,.09c0,.11,0,.16,0,.16a73.47,73.47,0,0,1,6.07,9.95,51.49,51.49,0,0,1,5.52,16.45c1.43,11.33.94,34,3.78,46.53Z" style="fill:#b16668"></path><path d="M374.51,323.62c-.82-15-2.09-40.54-2.09-55.25l-13.76-17,1.42,16.74h0a242.23,242.23,0,0,0,10.83,45.78C371.8,316.43,373.05,319.79,374.51,323.62Z" style="fill:#9a4a4d"></path><path d="M409.31,369.4c2.66-.45,2.29,8.79,3.86,14.4,1.68,6,4.7,10.08,6.14,15,1.65,5.62,1.84,9.12-.22,13.32-1.86,3.8-9.8,10.81-14.15,6.19s-6-10.49-6.51-16.3a91.26,91.26,0,0,0-2.33-14.48c-1.12-4.78-3.65-13.15-1.69-13.79l1.11,2.75c1.57,1.91,13.48-.61,14.23-5Z" style="fill:#37474f"></path><path d="M352.16,376c.68,2.91-.15,10.86-.15,10.86s-1.29,2.73-5.79,4.51l-1.88-11.1Z" style="fill:#263238"></path><polygon points="346.22 391.33 336.38 387.97 334.11 379.18 345.07 384.53 346.22 391.33"></polygon><path d="M334.1,366.16l-.37-2.6c-1.34.64-1.28,11.36-8.45,18.92-5.28,5.58-11.3,8.85-13.68,11.77-3.18,3.9,4.27,10.47,14.08,8.49,4.87-1,12.26-4,14.29-7.25s3.44-8.57,5.1-11,6.23-4.22,7.31-6.87c1.2-2.93.25-6.89-.55-9.62-.74-2.51-.36-5.18-1.5-5.24l-.23,2c-.67,1.33-4.56,3.09-9.5,3.29C338.25,368.2,335.15,368.32,334.1,366.16Z" style="fill:#37474f"></path><path d="M360.08,268.09l-2.8-33s-13.36-7.78-16.59-14.87c0,0,2.08,11,12,17.09l4.34,30.8-2.89,33Z" style="fill:#9a4a4d"></path><g id="freepik--Skirt--inject-62"><path d="M399.53,250.85c1.21-11.59,2.13-22.69,2.13-29.51,0-14-8.15-26.54-8.15-26.54a57.18,57.18,0,0,1-34.57,11.32c-9.35,0-15.63-1.93-19.72-4-5.1-2.59-6.79-5.49-6.79-5.49,4.56,22,20.84,48,35.51,67.9,19.37,15.73,26,32,26,32a73.47,73.47,0,0,1,6.07,9.95C398.81,284.86,398.36,264.15,399.53,250.85Z" style="fill:#87E59F"></path><path d="M399.53,250.85c1.21-11.59,2.13-22.69,2.13-29.51,0-14-8.15-26.54-8.15-26.54a57.18,57.18,0,0,1-34.57,11.32c-9.35,0-15.63-1.93-19.72-4-5.1-2.59-6.79-5.49-6.79-5.49,4.56,22,20.84,48,35.51,67.9,19.37,15.73,26,32,26,32a73.47,73.47,0,0,1,6.07,9.95C398.81,284.86,398.36,264.15,399.53,250.85Z" style="opacity:0.30000000000000004"></path><path d="M401.57,225.49l-8.32-19.12-22.7,37.94,20.63,32.44,7.74-13.51c.1-4.59.29-8.77.61-12.39C400.52,241.38,401.31,232.24,401.57,225.49Z" style="fill:#87E59F"></path><path d="M387.55,285.44a64.48,64.48,0,0,1,6.39,11,73.47,73.47,0,0,1,6.07,9.95c-.25-4.55-.47-9.06-.65-13.48l-7.76-14.7S389.73,281.6,387.55,285.44Z" style="fill:#87E59F"></path><g style="opacity:0.2"><path d="M401.57,225.49l-8.32-19.12-22.7,37.94,20.63,32.44,7.74-13.51c.1-4.59.29-8.77.61-12.39C400.52,241.38,401.31,232.24,401.57,225.49Z"></path><path d="M387.55,285.44a64.48,64.48,0,0,1,6.39,11,73.47,73.47,0,0,1,6.07,9.95c-.25-4.55-.47-9.06-.65-13.48l-7.76-14.7S389.73,281.6,387.55,285.44Z"></path></g><path d="M395.62,198.57h0l-12.09,2.18a59.14,59.14,0,0,1-14.65,4.54L359.75,253c2.73,4,5.49,7.89,8.19,11.56,1.58,1.28,3.07,2.57,4.48,3.85a308,308,0,0,1,1.9-34.9C376.65,212.64,391.41,204.51,395.62,198.57Z" style="opacity:0.30000000000000004"></path><path d="M395.62,198.57c-9.2,10-16.75,10-23.07,30.81s4.21,174.14,4.21,174.14-42.69,1.46-60.35-17.58c0,0,.63-67.42,3.78-103.3s12.24-86,12.24-86,12.32,8.64,33.64,6,27.44-7.84,27.44-7.84Z" style="fill:#87E59F"></path><path d="M395.62,198.57c-9.2,10-16.75,10-23.07,30.81s4.21,174.14,4.21,174.14-42.69,1.46-60.35-17.58c0,0,.63-67.42,3.78-103.3s12.24-86,12.24-86,12.32,8.64,33.64,6,27.44-7.84,27.44-7.84Z" style="opacity:0.2"></path><path d="M316.54,376c12.16,11.42,39.48,20.72,59.56,17.5" style="fill:none;stroke:#455a64;stroke-linecap:round;stroke-miterlimit:10"></path><polyline points="316.41 385.94 322.61 380.14 326.46 393.56 335.11 387.23 337.19 398.12 345.63 390.87 350.38 401.39 358.56 393.52 363.57 403.11 369.63 394.07 376.76 403.52" style="fill:none;stroke:#455a64;stroke-linecap:round;stroke-linejoin:round"></polyline><path d="M371.72,233.55l-4.68-9-22,32.75L330.5,220.17l-2.65,3.74c-2.74,17.35-6,40-7.66,58.73-.35,4.05-.68,8.51-1,13.22l25.59-33.8,18.45,44.36,7.81-14C370.31,267,370.23,244.26,371.72,233.55Z" style="fill:#87E59F"></path><path d="M372.6,331.13l-10.19-20.07-24.26,35-19.44-41.13c-1.22,23.43-1.83,50.64-2.1,66.82l21-23.18,19.91,39.89,16.82-24.35C373.76,354,373.16,342.77,372.6,331.13Z" style="fill:#87E59F"></path><path d="M340.75,200.44a34.91,34.91,0,0,1-8.32-3.83s-1.25,6.89-3,17.38l1.05,4.21Z" style="fill:#87E59F"></path><path d="M366.07,202.64c-1.68.21-3.3.34-4.86.41l5.46,19.55,14.23-22.67A112,112,0,0,1,366.07,202.64Z" style="fill:#87E59F"></path><g style="opacity:0.30000000000000004"><path d="M371.72,233.55l-4.68-9-22,32.75L330.5,220.17l-2.65,3.74c-2.74,17.35-6,40-7.66,58.73-.35,4.05-.68,8.51-1,13.22l25.59-33.8,18.45,44.36,7.81-14C370.31,267,370.23,244.26,371.72,233.55Z"></path><path d="M372.6,331.13l-10.19-20.07-24.26,35-19.44-41.13c-1.22,23.43-1.83,50.64-2.1,66.82l21-23.18,19.91,39.89,16.82-24.35C373.76,354,373.16,342.77,372.6,331.13Z"></path><path d="M340.75,200.44a34.91,34.91,0,0,1-8.32-3.83s-1.25,6.89-3,17.38l1.05,4.21Z"></path><path d="M366.07,202.64c-1.68.21-3.3.34-4.86.41l5.46,19.55,14.23-22.67A112,112,0,0,1,366.07,202.64Z"></path></g></g></g><g id="freepik--Top--inject-62"><path d="M353.44,128.6c-11.23-.94-16.85.21-24.86,10.88-5.57,7.41-16.66,21.11-19.9,26.76-3.67,6.36-4.18,8.95-1.31,13.71,2.73,4.53,24.39,29.54,24.39,29.54s3.47-9.81,5.6-15.17L326,174.73l21-21.64Z" style="fill:#b16668"></path><path d="M391.17,131.05c-2.66-.89-12.31-1.7-12.31-1.7-3.67-.59-18.63-1-18.63-1l-6.79.21a75.25,75.25,0,0,0-13.74,10.88c-6.81,6.88-10.45,10.92-10.37,17.64.07,6.4,5.29,10.95,5.29,10.95a84.49,84.49,0,0,0,.53,11.36c10.1,7.43,41.32,9.13,50.87.11.32-10,4.81-18.08,7.6-27.39C396.48,142.6,393.83,131.94,391.17,131.05Z" style="fill:#263238"></path><path d="M375.39,167.81a14.13,14.13,0,0,1-14,6.37,14.91,14.91,0,0,1-12-8.91s-.45,10.39,11.79,11.39S375.39,167.81,375.39,167.81Z" style="opacity:0.2"></path><path d="M364.44,69.47c-1.48-2.94.68-5.55,2.76-5a3.25,3.25,0,0,1,1.07-4.09c2-1.41,4.52,0,4.52,0A4,4,0,0,1,375.62,57c2.58-.65,4,0,5.29,1.56,0,0,4-1.41,10.33,2.48,3.64,2.26,5.1,4.12,4.79,6.83-.22,1.86-2.52,2.12-2.52,2.12s3.05,1.37,2.32,4.35-3.26,1.94-3.26,1.94a3.13,3.13,0,0,1,.78,3.9A3.46,3.46,0,0,1,390,81.75c.49,0,1,4.81-3.64,3.85C382.3,85.84,364.44,69.47,364.44,69.47Z" style="fill:#37474f"></path><path d="M387.73,85.57a1.92,1.92,0,0,0-.36-2.3,3.59,3.59,0,0,0-1.43-4.89s-1-4.59-4.74-3.68l2.61,7.8Z" style="fill:#263238"></path><path d="M380.91,58.51A14.94,14.94,0,0,1,388.48,55c4.51-.63,5.41.84,4.78,1.77s-4.2.93-6.92,4S380.91,58.51,380.91,58.51Z" style="fill:#37474f"></path><path d="M380.33,59.22a9,9,0,0,1,1-6c1.71-3,3.63-1.53,3.24.51a15.55,15.55,0,0,0,.05,4.68Z" style="fill:#37474f"></path><path d="M393.51,69.94s-5.48-6-11.13-6.88c0,0,4.53.06,7.64,2.54S393.51,69.94,393.51,69.94Z" style="fill:#263238"></path><path d="M367.2,64.43c1.31,4,8.65,9.14,13.71,9.62C380.91,74.05,371.86,70.16,367.2,64.43Z" style="fill:#263238"></path><path d="M373.26,58.84a4.72,4.72,0,0,0-.47,1.5c.87,2.68,5.39,6.79,8.41,8.07C381.2,68.41,374.65,63.49,373.26,58.84Z" style="fill:#263238"></path><path d="M377.81,101.94s6.24,1.17,8.26-.31c3.31-2.44,3.19-4.49,3.11-5.53A2.92,2.92,0,0,0,388,93.81a3.51,3.51,0,0,0,1.33-3.47c-.45-2.23-2-2.18-2-2.18s1.6-2.88-1-4c0,0,1.15-2.08.05-3.71a4,4,0,0,0-2.67-1.76,3.69,3.69,0,0,0-.94-3.18,3.08,3.08,0,0,0-4-.37,2.88,2.88,0,0,0-1.15-3.41,3.6,3.6,0,0,0-3.87-.34,3.78,3.78,0,0,0-3-2.73,3.25,3.25,0,0,0-3.47,2.13,4.42,4.42,0,0,0-4.38-2.1,4.32,4.32,0,0,0-3.58,2.4,4.91,4.91,0,0,0-4.33-.69c-2.65,1-2.8,2.94-2.8,2.94a3.51,3.51,0,0,0-3.58.59,3.07,3.07,0,0,0-1.31,3.16A3.05,3.05,0,0,0,345.12,79a3.51,3.51,0,0,0,.2,3.2s-2.71,2.66-.61,5.5c1.45,2,6.12,12.13,15.72,16A19.29,19.29,0,0,0,377.81,101.94Z" style="fill:#37474f"></path><path d="M346,79.77c-2.76-.18-4.35,3.89-5,8.57s-4,7.89-2.48,9.14,3.55-1,4.88-3.39,2.35-9,3.91-10S346,79.77,346,79.77Z" style="fill:#37474f"></path><path d="M347.23,82.69s-3.78,3.84-3.31,19.66c.4,13.22,2.78,16.29,6.43,17.78,2.17.89,5.65.73,9.72.26l.16,8s-11.5,8.56-2.3,10.21c4.6.83,10.32-.72,14.4-3.62a23.42,23.42,0,0,0,5.92-5.71l.49-17.73s2.25,2.43,6.46-.88c3.47-2.74,4.84-7.57,2.39-10.33a6,6,0,0,0-9.51,1.31s-5.65.44-4.49-4.18l-.06-.38,0-.25c-2.11-.72-2.36-4.52-.66-4.52-.06-.39,0-.3-.11-.68-2.29-.4-3-4.86-1-4.63A11,11,0,0,0,368,81.92l-.69.31c-.52,2.49-4.22,2.78-5,1.75-.48.13-.25.07-.74.18-.78,2.33-4.67,2.38-5.77,1A11.41,11.41,0,0,1,347.23,82.69Z" style="fill:#b16668"></path><path d="M361.46,108.72,357.13,110a2.21,2.21,0,0,0,2.76,1.6A2.36,2.36,0,0,0,361.46,108.72Z" style="fill:#9a4a4d"></path><path d="M347.38,91.8l3.91,1.2A2,2,0,0,0,350,90.45,2.13,2.13,0,0,0,347.38,91.8Z" style="fill:#263238"></path><path d="M361,93.23l4-1a2,2,0,0,0-2.41-1.53A2.16,2.16,0,0,0,361,93.23Z" style="fill:#263238"></path><polygon points="356.21 94.71 355.35 106.89 349.39 105.37 356.21 94.71" style="fill:#9a4a4d"></polygon><path d="M360.07,120.39c4.27-.33,13.13-4.73,14.67-8.11a8.8,8.8,0,0,1-4.19,6.28A50.77,50.77,0,0,1,360.12,123Z" style="fill:#9a4a4d"></path><path d="M350.57,96.84a1.88,1.88,0,0,1-1.63,2,1.75,1.75,0,0,1-2-1.55,1.88,1.88,0,0,1,1.62-2A1.77,1.77,0,0,1,350.57,96.84Z" style="fill:#263238"></path><path d="M364.75,96.84a1.88,1.88,0,0,1-1.63,2,1.76,1.76,0,0,1-2-1.55,1.88,1.88,0,0,1,1.62-2A1.77,1.77,0,0,1,364.75,96.84Z" style="fill:#263238"></path><path d="M368.27,82.44c-.77-3.89-2.19-7.36-8.94-11.3,0,0,7.91,4.08,8.07,12.13Z" style="fill:#b16668"></path><path d="M352.2,73.39c3.11,1,9.37,5.55,10.35,11.29l-1,.39C361.71,83.27,359.93,77.4,352.2,73.39Z" style="fill:#b16668"></path><path d="M347.31,77.14c1.43.5,7.34,2.92,8.58,8.32l-.91.11S354.37,80.8,347.31,77.14Z" style="fill:#b16668"></path><path d="M370.8,86.2s8.14,1.59,14.36-1.52c0,0-3.8,3.12-14.23,2.27Z" style="fill:#b16668"></path><path d="M371.53,91.51s7.73,1.17,14.41-2.52c0,0-3.55,3.39-14,3.32Z" style="fill:#b16668"></path><path d="M371.88,96.75s8.13,1,14.46-2.61c0,0-3.56,3.39-14,3.32Z" style="fill:#b16668"></path><path d="M382.82,112.05c.26,3.66.37,15.32-1.33,23.62-1.61,7.82-6.79,21.45-7.5,25s-3.8,3.25-3.41-1S373.91,146.44,376,140a47.88,47.88,0,0,0,2.29-10.69l.49-17.73A4.59,4.59,0,0,0,382.82,112.05Z" style="fill:#37474f"></path><path d="M372.55,151s2.69-1.37,4.06,1.19l1.07-3.26s-.59-2.58-4-1.58Z" style="fill:#87E59F"></path><path d="M429.81,68.41c0-2.12-.48-3.38.46-4.88a18,18,0,0,0,2.29-5.83c.73-3,1.22-5.52,1.22-5.52s.52-2.83-.57-4a1.89,1.89,0,0,0-2.53-.43,2.52,2.52,0,0,0-.61-3.09,2.48,2.48,0,0,0-3.15.22s1-2.57-1.11-3.68a2.36,2.36,0,0,0-3.25.68,2.83,2.83,0,0,0-1.85-3.51c-1.41-.58-3,0-4.88,4.54,0,0-2.34.51-3.22,1.75-.55.79-1.95,5.47-2.57,8.76-.31,1.6.78,4.44,2.69,6.61,1.74,2,2.84,4.28,3.31,9.72Z" style="fill:#b16668"></path><path d="M415,49.87a20.36,20.36,0,0,1,5.24,3.7,22.3,22.3,0,0,1,4.5,6.76,14,14,0,0,0-2.92-6.56,2,2,0,0,0,1.05-.34c-.08,1.46.08,2.86,1.92,3a2.34,2.34,0,0,0,2.2-.86,2,2,0,0,0,1,2,1.86,1.86,0,0,0,2.42-.38,2.83,2.83,0,0,0,.29-.47.16.16,0,0,0,0-.09s0,0-.05,0l-.22.18a2.15,2.15,0,0,1-1.88.53,1.76,1.76,0,0,1-.78-1.28,7.45,7.45,0,0,1,.18-2.39s0-.07,0-.09-.16,0-.22,0c-.34.33-.58.75-.89,1.11a1.94,1.94,0,0,1-1.68.69c-1.31-.09-1.54-1.72-1.44-2.77,0-.35.08-.7.1-1,0-.05,0-.11-.06-.11h0a1.69,1.69,0,0,0-.46.5,3.32,3.32,0,0,1-.52.54,1.69,1.69,0,0,1-.85.41c-.7.07-1-.58-1.16-1.13a5.45,5.45,0,0,1-.25-2.83v-.09l.25,0c2.52.48,3.54-1.95,2.77-2.64s-3.48-3.87-4.12-3.82a24.7,24.7,0,0,0-3.52.46l3.59-.18s3.89,3.89,3.67,4.42a1.92,1.92,0,0,1-2,1.24,16.41,16.41,0,0,1-3.67-.93C417.23,48.45,415,49.87,415,49.87Zm1.6-.82a2.06,2.06,0,0,0,.92-.85s.59.18,2.52.57a10.52,10.52,0,0,0-.56,1.23,2.14,2.14,0,0,1-.42.61.66.66,0,0,1-.17.12A18.24,18.24,0,0,0,416.55,49.05Z" style="fill:#9a4a4d"></path><path d="M387.9,130.4c.91-.92,4.87-2,8.35-5,8.57-7.2,19.94-18,19.94-18s-.28-15.09-.24-23.14c.05-10.25-.39-18.13-.39-18.13l14.15.09s3.64,27.71,4.56,38.83c.61,7.45,1,9-3.41,14.44s-38.42,36.22-38.42,36.22S377.92,148.65,387.9,130.4Z" style="fill:#b16668"></path></g></g></g><g id="freepik--character-1--inject-62"><g id="freepik--character--inject-62"><g id="freepik--Botom--inject-62"><path d="M160.13,369.58c.33-4.9,3.27-54.39,3.27-54.39L138.54,333c4,28.32,5.61,35.91,5.76,40.63h0a4,4,0,0,0-.12,1.21c.1,5.61,6.79,8.58,12,12.27a98.78,98.78,0,0,0,14.15,8.61c3.8,1.77,11.47,1.87,12.38-.45-6.37-4.53-13.75-9.49-18.85-14.68C161.47,378.06,159.73,375.47,160.13,369.58Z" style="fill:#9e6767"></path><path d="M193.61,401.18c.32,0,.85,3.39-.89,4.85-2,1.68-7.94,4.46-15.83,3.56s-12.19-3.19-15.38-5.67-7.65-6-11.22-6.71c-3.32-.67-6.93-2.06-8-3s-1-5.29-1-5.29Z" style="fill:#263238"></path><path d="M144.23,372.22a1.25,1.25,0,0,0-1.18,1c-.22,1.19-.44,4.66-.94,6.62-.69,2.73-1.1,8.3-.64,10.52s5.88,3.71,9.35,4.93a44.45,44.45,0,0,1,11.26,6.62c3.74,2.87,11.56,5.72,16.7,5.75,7.84.05,12.9-2,14.43-4.71,1.9-3.33.35-5.24-8.71-9.13-1.71-.74-7.75-4.06-9.81-5.27-5.56-3.26-11.09-7.82-13.71-13.65a3.36,3.36,0,0,0-1.32-1.78,3.05,3.05,0,0,0-1.75-.13,15.38,15.38,0,0,0-4.32,1.28c-1.2.55-2.91,1.21-2.87,2.68a4.85,4.85,0,0,0,.36,1.49c.11.3.2.7-.07.88s-.61,0-.85-.22a22.16,22.16,0,0,1-2.46-2.75,8.58,8.58,0,0,0-1.45-1.37,15.89,15.89,0,0,1-1.55-.93C144.15,373.55,144.27,372.91,144.23,372.22Z" style="fill:#37474f"></path><path d="M186,394.48c-11.34.83-14.83,7.53-15.26,11.65a27.81,27.81,0,0,0,8.08,1.55c7.84.05,13.22-2,14.75-4.71C195.32,399.83,194.05,397.32,186,394.48Z" style="fill:#fafafa"></path><path d="M169,394.73a.6.6,0,0,1-.36-.12.52.52,0,0,1-.08-.74,13.64,13.64,0,0,1,10.21-3.93.53.53,0,1,1-.1,1.05,12.65,12.65,0,0,0-9.25,3.54A.56.56,0,0,1,169,394.73Z" style="fill:#f0f0f0"></path><path d="M164,392.06a.59.59,0,0,1-.35-.12.51.51,0,0,1-.09-.74,13.65,13.65,0,0,1,10.22-3.93.53.53,0,1,1-.11,1.05,12.62,12.62,0,0,0-9.24,3.54A.57.57,0,0,1,164,392.06Z" style="fill:#f0f0f0"></path><path d="M159.45,389a.66.66,0,0,1-.35-.11.52.52,0,0,1-.09-.75,13.72,13.72,0,0,1,10.22-3.93.53.53,0,1,1-.11,1.05,12.68,12.68,0,0,0-9.24,3.54A.55.55,0,0,1,159.45,389Z" style="fill:#f0f0f0"></path><path d="M155,385.94a.51.51,0,0,1-.35-.11.52.52,0,0,1-.1-.74c2.14-2.62,7-4.38,11.16-4a.53.53,0,1,1-.1,1c-3.72-.35-8.28,1.26-10.18,3.59A.57.57,0,0,1,155,385.94Z" style="fill:#f0f0f0"></path><path d="M116.18,331.42l-26.29-1.94c-.76,15.52.76,32.88.14,47.44-.12,2.74-1.65,21.26-.9,27,1.13,8.56,12.6,8.08,13.58,3.05s1.94-26.54,2.15-28.77c.59-9.33,6-25,9.85-41.57C114.89,335.78,116,332.21,116.18,331.42Z" style="fill:#9e6767"></path><path d="M106.74,410.7c-.13,5-.87,8.31-2.76,11.29s-5.62,4-9.48,3.28-8.85-2.87-10.12-7.13-1.16-7.21-.47-11.85Z" style="fill:#263238"></path><path d="M90.1,375.14c-1.58.16-1.77,6.85-2.42,13.57-.69,7.2-3,10.24-3.63,16.15-.73,6.74-.21,9.73,2.62,13.71s12.43,7.67,16.85,1.71c3.61-4.86,3.56-10.12,3-16.82a149.28,149.28,0,0,1-1-17.06c.11-5,1-9.72-.39-10.24-.07.74-.14,1.68-.22,2.41-.06.56-.11,3.29-1,3.34a9.94,9.94,0,0,1-.09-1.89,2,2,0,0,0-.5-1.61,6.08,6.08,0,0,0-2.47-.83c-1.56-.23-3.13-.42-4.71-.5a23.23,23.23,0,0,0-2.36,0,6.67,6.67,0,0,0-2,.31,1.35,1.35,0,0,0-.83.71,2,2,0,0,0,0,.77,4.94,4.94,0,0,1-.14,1.38c0,.2-.2.45-.42.41a.4.4,0,0,1-.28-.4c0-.81.06-1.4.06-2.35,0-.43.06-1,0-1.47S90.08,375.57,90.1,375.14Z" style="fill:#37474f"></path><path d="M83.77,408.76c-.11,4.18.27,7,2.49,10.14,2.83,4,13.19,7.66,17.61,1.7,2.2-3,2.69-6.4,2.87-9.9C103.77,406.3,88,404.81,83.77,408.76Z" style="fill:#fafafa"></path><path d="M102.41,403.52l-.2,0a25.77,25.77,0,0,0-13.64-.82.59.59,0,0,1-.71-.37.51.51,0,0,1,.41-.63,26.73,26.73,0,0,1,14.41.87.49.49,0,0,1,.3.68A.61.61,0,0,1,102.41,403.52Z" style="fill:#f0f0f0"></path><path d="M88.76,397.64a.57.57,0,0,1-.51-.33.5.5,0,0,1,.34-.67c7-2.32,14.08.63,14.38.76a.49.49,0,0,1,.28.68.63.63,0,0,1-.78.24c-.07,0-7-2.88-13.47-.71A.5.5,0,0,1,88.76,397.64Z" style="fill:#f0f0f0"></path><path d="M89,392.91a.58.58,0,0,1-.5-.32.5.5,0,0,1,.33-.67,20.24,20.24,0,0,1,14.67.7.48.48,0,0,1,.22.7.62.62,0,0,1-.79.2,19.36,19.36,0,0,0-13.67-.65A.78.78,0,0,1,89,392.91Z" style="fill:#f0f0f0"></path><path d="M89.24,387.59a.59.59,0,0,1-.5-.31.5.5,0,0,1,.32-.68c7.18-2.63,14.47.7,14.78.85a.48.48,0,0,1,.24.69.63.63,0,0,1-.79.22c-.07,0-7.11-3.25-13.78-.81A.51.51,0,0,1,89.24,387.59Z" style="fill:#ebebeb"></path><path d="M97.78,207c-.77,28.24-3.19,91.35-3.19,91.35-.45,3.46-4.86,11.51-5.12,24.05-.41,19.68,0,38,0,38s11,4.42,19.07,1.46c0,0,11.83-40.43,14.85-53.47,3.61-15.53,7.44-42.93,7.44-42.93l6,36.38a120.34,120.34,0,0,0-.09,24.2c.92,8.3,5.42,32.06,5.42,32.06s10.11,2.1,18.9-.44c0,0,4.22-48.57,4.7-56.2.55-8.7-2.12-92.46-2.12-92.46Z" style="fill:#455a64"></path><path d="M130.83,265.49l4.09-26.18s9.6-.32,16.21-6.43c0,0-.86,6.14-12.88,9.77l-4.68,22.07,3.12,36.38Z" style="fill:#87E59F;opacity:0.25"></path><path d="M130.83,265.49l4.09-26.18s9.6-.32,16.21-6.43c0,0-.86,6.14-12.88,9.77l-4.68,22.07,3.12,36.38Z" style="fill:#37474f"></path></g><g id="freepik--top--inject-62"><polygon points="177.14 205.33 162.65 217.69 157.3 203.39 169.07 190.45 177.14 205.33" style="fill:#9e6767"></polygon><path d="M153,124.11c10.15,1,13.55,1.7,22.23,13.74,6,8.36,19.22,24.4,22.71,30.75,3.93,7.16,5.51,9.6,1.14,15.28-3.58,4.67-24.28,24-24.28,24-4.16-3.4-8-6.82-10.28-12.83l13.94-17.42-22.88-24.52Z" style="fill:#455a64"></path><path d="M98.93,127.48a29.5,29.5,0,0,0-7.44,11c-1,2.57-3.33,5.23-.73,20,2.48,14.13,4.54,21.62,5.28,32.65l.59,26.37c8.7,9.75,48.64,14.22,68.14.39,0,0,1.07-53-.71-69.92-1.21-11.47-7-20.43-11.05-23.88-5.4-.81-10.65-1.38-10.65-1.38L122.53,122Z" style="fill:#87E59F"></path><path d="M50.9,62.23c0-2.25.51-3.58-.49-5.18A19.23,19.23,0,0,1,48,50.87C47.21,47.68,46.69,45,46.69,45s-.55-3,.61-4.23A2,2,0,0,1,50,40.31a2.53,2.53,0,0,1,4-3s-1.09-2.72,1.18-3.9a2.51,2.51,0,0,1,3.44.73,3,3,0,0,1,2-3.73c1.49-.62,3.21,0,5.18,4.81,0,0,2.48.54,3.41,1.86.58.84,2.07,5.8,2.73,9.29C72.19,48,71,51,69,53.34c-1.84,2.1-3,4.54-3.51,10.31Z" style="fill:#9e6767"></path><path d="M64.08,40a16.75,16.75,0,0,1-3.89,1A2,2,0,0,1,58,39.69c-.23-.57,3.89-4.7,3.89-4.7l3.81.19A25.72,25.72,0,0,0,62,34.7c-.68-.05-3.54,3.32-4.36,4s.26,3.31,2.93,2.8l.27-.06v.1a5.68,5.68,0,0,1-.27,3c-.22.58-.49,1.27-1.23,1.2a1.74,1.74,0,0,1-.9-.44,3,3,0,0,1-.55-.57,1.71,1.71,0,0,0-.48-.52l0,0c-.05,0-.07.07-.07.12,0,.37.08.74.11,1.11.11,1.12-.13,2.84-1.52,2.94a2.06,2.06,0,0,1-1.78-.73c-.34-.38-.59-.83-1-1.19-.07-.06-.19-.11-.23,0a.12.12,0,0,0,0,.1,7.81,7.81,0,0,1,.18,2.54,1.82,1.82,0,0,1-.82,1.35,2.26,2.26,0,0,1-2-.56L50,49.69c-.05,0-.05,0-.05,0a.16.16,0,0,0,0,.09,3.21,3.21,0,0,0,.31.5,2,2,0,0,0,2.57.4A2.16,2.16,0,0,0,54,48.58a2.47,2.47,0,0,0,2.33.92c1.95-.13,2.12-1.61,2-3.16a2.2,2.2,0,0,0,1.12.36,14.72,14.72,0,0,0-3.1,7,23.52,23.52,0,0,1,4.77-7.17,21.63,21.63,0,0,1,5.56-3.92S64.24,41.06,64.08,40Zm-1.54,3.47a1.07,1.07,0,0,1-.19-.13,2.26,2.26,0,0,1-.44-.65,11.8,11.8,0,0,0-.6-1.3c2-.41,2.67-.61,2.67-.61a2.16,2.16,0,0,0,1,.9A19.21,19.21,0,0,0,62.54,43.48Z" style="fill:#874c4c"></path><path d="M97.34,129.16c-1-1-7.16-3.36-10.85-6.45C77.4,115.08,66.13,103,66.13,103s-.49-15.41-.53-24c0-10.87.41-19.22.41-19.22l-15,.1s-3.87,29.38-4.83,41.17c-.65,7.91-1.09,9.56,3.61,15.32s41.35,41.28,41.35,41.28S104.67,148.71,97.34,129.16Z" style="fill:#9e6767"></path><path d="M98.93,127.48c-4.24-3.23-4.24-2.92-11.53-7.37s-20-16.86-20-16.86L65.6,75.77s-9,2.81-16.35-2.06c0,0-1.91,10.9-3.47,24.43s-1.45,13.11,3.17,19S87.89,155.25,91.24,159c3.05,3.43,6.16.08,8.07-8.61C101.29,141.41,101.29,135.05,98.93,127.48Z" style="fill:#455a64"></path><g id="freepik--Head--inject-62"><path d="M159.5,79.38a6.6,6.6,0,0,0-3.83-5.22,3.9,3.9,0,0,0,.81-4.7,4.32,4.32,0,0,0-4.55-2,4.54,4.54,0,0,0,.53-6.52,5.12,5.12,0,0,0-6.87-.2,5.59,5.59,0,0,0-3.84-5.44,6.06,6.06,0,0,0-6.56,2c.17-.22-1.08-1.6-1.25-1.78a8.11,8.11,0,0,0-1.84-1.46,7.77,7.77,0,0,0-4.35-1,7.45,7.45,0,0,0-6.93,4.77,8.88,8.88,0,0,0-5.06-1.35,8.48,8.48,0,0,0-6.28,2.85,7.44,7.44,0,0,0-1.42,6.17c-3.84-.42-7,.27-8.92,3.94a7.3,7.3,0,0,0,.65,7.7c-3.43.29-4.81,4.39-4.64,6.16a5.61,5.61,0,0,0,4.22,5c-1.8.76-2.87,3.29-2.41,5.49a6.18,6.18,0,0,0,4.59,4.65c-1.13,1.37-1.75,4.37-.15,6.28a6,6,0,0,0,6.51,1.81c0,2.74,2,4.72,5,5.25,2,.37,5.3-1.52,6.2-3.56.68-1.53,3.32-1.57,5.17-1.37,1.29.11,2.09.57,3,.54a42.68,42.68,0,0,0,21-6.26,33.5,33.5,0,0,0,7.22-6.69c4.46-2.2,3.75-7.65,1.22-9.28A6.47,6.47,0,0,0,159.5,79.38Z" style="fill:#263238"></path><path d="M110.33,105.46a4.35,4.35,0,0,0,5.89-1l.75,19.95a15.31,15.31,0,0,0,7,6.71c4.79,2.07,10.28,3.93,15.1,9.22,3.81-5.88,5.88-12.38.08-17.28l-.21-5.91a36.13,36.13,0,0,0,6.77-.08c4.28-.7,7-4.12,8.21-8.77,2-7.47,1-18-1.95-32.49-4.83-3.69-20.16-4.79-30.2,1.66C122.34,86,120,89.77,120,92.87a8.08,8.08,0,0,1-1.83,2.41c-1.56,1.37-2.86-2.14-4.19-3.51s-5.65-3.2-7.75,1.34S107.32,103.57,110.33,105.46Z" style="fill:#9e6767"></path><path d="M139.09,140.31c-2.5-1.51-8-7.69-10.72-4.78s-4.17,3.71-6,3.19-5.8-4.43-8.42-7.28a16.55,16.55,0,0,1-3.46-7,46.42,46.42,0,0,0,3.62-5.12c1.22-2.2,1-2.81,2.53-2.93l.17,4.13s1,2.24,5.5,5.26S135.83,133.31,139.09,140.31Z" style="fill:#455a64"></path><path d="M139.09,140.31c1.47-1.36,3.83-7.67,4.47-7.49.95.27,2.68,4.6,3.49,3.58,1.29-1.61.84-8.91-1.33-11.55s-5.07-5.45-6.69-5.72l.14,3.9a15.7,15.7,0,0,1,1.64,6.27C140.81,131.51,139.38,138.19,139.09,140.31Z" style="fill:#455a64"></path><path d="M135.94,90.23a1.92,1.92,0,1,1-1.94-2A2,2,0,0,1,135.94,90.23Z" style="fill:#263238"></path><path d="M135.67,84.3l-4.52,1.21a2.45,2.45,0,0,1,1.71-2.94A2.28,2.28,0,0,1,135.67,84.3Z" style="fill:#263238"></path><path d="M151.46,84.51l-4.6-1.07a2.26,2.26,0,0,1,2.75-1.8A2.48,2.48,0,0,1,151.46,84.51Z" style="fill:#263238"></path><path d="M150.43,90a1.92,1.92,0,1,1-1.94-2A2,2,0,0,1,150.43,90Z" style="fill:#263238"></path><polygon points="140.32 86.08 141.8 99.86 149.18 97.58 140.32 86.08" style="fill:#874c4c"></polygon><path d="M119.9,91.76c.95,9.12,4.23,10.57,7.43,11.39,5.09,1.31,8.86-1.31,14.7-2.61,3.89-.86,5.51.68,9.29,1.18,1.21.17,2.51.18,3-1.39.69-2.52.52-7,.08-10.63l.55-2.64s1.07,12.66.84,17,0,7.89-3.36,10.62-10.53,4.2-19.25,2.79-12.06-4.08-13.27-7.06c-3.92-9.68-2.86-14.42-4.1-16.22S119.9,91.76,119.9,91.76Z" style="fill:#263238"></path><path d="M138.25,105.23l4.17.9a2.1,2.1,0,0,1-2.49,1.71A2.24,2.24,0,0,1,138.25,105.23Z" style="fill:#874c4c"></path></g></g></g></g></svg>